<?xml version="1.0" encoding="UTF-8"?>
<svg id="Layer_1" xmlns="http://www.w3.org/2000/svg" version="1.1" viewBox="0 0 63 63.3">
  <!-- Generator: Adobe Illustrator 29.2.1, SVG Export Plug-In . SVG Version: 2.1.0 Build 116)  -->
  <defs>
    <style>
      .st0 {
        fill: #fff;
      }

      .st1 {
        fill: none;
        stroke: #fff;
        stroke-miterlimit: 10;
        stroke-width: 2px;
      }
    </style>
  </defs>
  <g>
    <path class="st0" d="M0,44.4h2v17.1h10.5v1.7H0v-18.8Z"/>
    <path class="st0" d="M27.6,56.7h-11.8c.2,3,2.5,4.9,5.6,4.9s3.3-.6,4.3-1.9l1.1,1.2c-1.3,1.5-3.2,2.3-5.5,2.3-4.4,0-7.4-3-7.4-7.2s2.9-7.2,6.9-7.2,6.9,2.9,6.9,7.2,0,.4,0,.6h0ZM15.8,55.3h10c-.2-2.8-2.3-4.7-5-4.7s-4.8,1.9-5,4.7Z"/>
  </g>
  <polyline class="st1" points="1 31.5 1 1 62 1 62 62 31.5 62"/>
</svg>